<svg xmlns="http://www.w3.org/2000/svg" width="2008" height="2008"><svg xmlns="http://www.w3.org/2000/svg" width="2008" height="2008" fill="none" viewBox="0 0 2008 2008"><g filter="url(#filter0_d_1_38)"><g clip-path="url(#clip0_1_38)"><rect width="2000" height="2000" x="4" fill="#228B22" rx="1000"/><path fill="#fff" d="M771.656 1694.4c-64.233 0-120.56-14.32-168.981-42.97-48.421-28.66-85.972-66.69-112.653-114.11-26.681-47.43-40.022-99.79-40.022-157.09V657.025h249.024v740.985c0 23.71 8.399 44.46 25.199 62.24 16.799 17.79 37.552 26.68 62.256 26.68H1060.7v207.47z"/><path fill="#fff" d="M808.991 1393.38V662.768c0-57.303 13.835-109.172 41.504-155.607 28.658-46.436 66.703-82.99 114.136-109.666C1013.05 369.832 1066.91 356 1126.2 356h386.88v207.476h-355.75c-27.67 0-51.39 9.879-71.15 29.639-18.78 19.76-28.17 43.965-28.17 72.617v149.679h404.67V1021.4h-404.67v371.98z"/></g></g><defs><clipPath id="SvgjsClipPath1000"><rect width="2000" height="2000" x="4" fill="#fff" rx="1000"/></clipPath><filter id="SvgjsFilter1001" width="2008" height="2008" x="0" y="0" color-interpolation-filters="sRGB" filterUnits="userSpaceOnUse"><feFlood flood-opacity="0" result="BackgroundImageFix"/><feColorMatrix in="SourceAlpha" result="hardAlpha" values="0 0 0 0 0 0 0 0 0 0 0 0 0 0 0 0 0 0 127 0"/><feOffset dy="4"/><feGaussianBlur stdDeviation="2"/><feComposite in2="hardAlpha" operator="out"/><feColorMatrix values="0 0 0 0 0 0 0 0 0 0 0 0 0 0 0 0 0 0 0.25 0"/><feBlend in2="BackgroundImageFix" result="effect1_dropShadow_1_38"/><feBlend in="SourceGraphic" in2="effect1_dropShadow_1_38" result="shape"/></filter></defs></svg><style>@media (prefers-color-scheme:light){:root{filter:none}}</style></svg>