<svg xmlns="http://www.w3.org/2000/svg" version="1.1" xmlns:xlink="http://www.w3.org/1999/xlink" xmlns:svgjs="http://svgjs.com/svgjs" width="2008" height="2008"><svg width="2008" height="2008" viewBox="0 0 2008 2008" fill="none" xmlns="http://www.w3.org/2000/svg">
<g filter="url(#filter0_d_1_38)">
<g clip-path="url(#clip0_1_38)">
<rect x="4" width="2000" height="2000" rx="1000" fill="#228B22"></rect>
<path d="M771.656 1694.4C707.423 1694.4 651.096 1680.08 602.675 1651.43C554.254 1622.77 516.703 1584.74 490.022 1537.32C463.341 1489.89 450 1437.53 450 1380.23V657.025H699.024V1398.01C699.024 1421.72 707.423 1442.47 724.223 1460.25C741.022 1478.04 761.775 1486.93 786.479 1486.93H1060.7V1694.4H771.656Z" fill="white"></path>
<path d="M808.991 1393.38V662.768C808.991 605.465 822.826 553.596 850.495 507.161C879.153 460.725 917.198 424.171 964.631 397.495C1013.05 369.832 1066.91 356 1126.2 356H1513.08V563.476H1157.33C1129.66 563.476 1105.94 573.355 1086.18 593.115C1067.4 612.875 1058.01 637.08 1058.01 665.732V815.411H1462.68V1021.4H1058.01V1393.38H808.991Z" fill="white"></path>
</g>
</g>
<defs>
<filter id="SvgjsFilter1001" x="0" y="0" width="2008" height="2008" filterUnits="userSpaceOnUse" color-interpolation-filters="sRGB">
<feFlood flood-opacity="0" result="BackgroundImageFix"></feFlood>
<feColorMatrix in="SourceAlpha" type="matrix" values="0 0 0 0 0 0 0 0 0 0 0 0 0 0 0 0 0 0 127 0" result="hardAlpha"></feColorMatrix>
<feOffset dy="4"></feOffset>
<feGaussianBlur stdDeviation="2"></feGaussianBlur>
<feComposite in2="hardAlpha" operator="out"></feComposite>
<feColorMatrix type="matrix" values="0 0 0 0 0 0 0 0 0 0 0 0 0 0 0 0 0 0 0.25 0"></feColorMatrix>
<feBlend mode="normal" in2="BackgroundImageFix" result="effect1_dropShadow_1_38"></feBlend>
<feBlend mode="normal" in="SourceGraphic" in2="effect1_dropShadow_1_38" result="shape"></feBlend>
</filter>
<clipPath id="SvgjsClipPath1000">
<rect x="4" width="2000" height="2000" rx="1000" fill="white"></rect>
</clipPath>
</defs>
</svg><style>@media (prefers-color-scheme: light) { :root { filter: none; } }
</style></svg>