<svg width="500" height="500" viewBox="0 0 500 500" fill="none" xmlns="http://www.w3.org/2000/svg">
<g clip-path="url(#clip0_5_2)">
<mask id="mask0_5_2" style="mask-type:luminance" maskUnits="userSpaceOnUse" x="0" y="0" width="500" height="500">
<path d="M500 250C500 111.929 388.071 0 250 0C111.929 0 0 111.929 0 250C0 388.071 111.929 500 250 500C388.071 500 500 388.071 500 250Z" fill="white"/>
</mask>
<g mask="url(#mask0_5_2)">
<mask id="mask1_5_2" style="mask-type:luminance" maskUnits="userSpaceOnUse" x="0" y="0" width="500" height="500">
<path d="M500 0H0V500H500V0Z" fill="white"/>
</mask>
<g mask="url(#mask1_5_2)">
<path d="M500 0H0V500H500V0Z" fill="white"/>
<path d="M425.467 256.939C423.078 259.924 420.393 262.609 417.41 264.995C415.022 266.785 412.933 269.472 411.143 273.052C407.563 273.052 403.982 272.754 400.402 272.157C396.82 271.56 393.24 271.262 389.658 271.262C389.658 267.085 389.062 264.697 387.868 264.1C387.272 263.504 385.78 261.714 383.393 258.73V250.674C383.393 247.092 383.99 244.109 385.183 241.72C386.973 239.334 388.465 237.544 389.658 236.35C391.45 234.56 393.538 233.365 395.925 232.769L413.828 234.56C415.022 236.35 416.217 238.14 417.41 239.93C418.603 241.72 420.095 243.214 421.885 244.407C422.482 246.197 422.78 249.18 422.78 253.359C422.78 253.955 423.675 255.149 425.467 256.939ZM267.018 98.4917C267.018 103.266 265.527 107.742 262.543 111.92C259.558 116.097 255.382 118.186 250.01 118.186C248.22 118.186 245.535 117.589 241.953 116.395C238.97 113.411 236.285 110.726 233.897 108.339C231.51 105.952 230.317 102.371 230.317 97.5965C230.317 95.8062 230.913 92.5239 232.107 87.7495C235.09 85.9592 238.075 84.1689 241.058 82.3785C244.043 80.588 247.325 79.6929 250.905 79.6929C252.697 79.6929 254.188 80.2897 255.382 81.4832C257.172 82.08 258.663 82.6769 259.857 83.2737L265.228 81.4832C265.825 84.4672 266.123 87.4512 266.123 90.435C266.72 92.8222 267.018 95.5079 267.018 98.4917ZM344.9 252.464C344.9 257.237 343.11 261.714 339.528 265.89C336.545 269.472 332.367 271.262 326.997 271.262C321.625 271.262 316.85 268.875 312.673 264.1C308.495 259.327 306.407 254.552 306.407 249.777C306.407 244.407 308.793 240.229 313.568 237.245C318.343 234.262 323.117 232.769 327.892 232.769C329.085 232.769 330.577 233.067 332.367 233.664C334.158 233.664 335.948 233.664 337.738 233.664C339.528 236.649 341.02 239.632 342.215 242.617C344.005 245.6 344.9 248.882 344.9 252.464ZM269.705 179.954C267.317 185.922 264.035 189.8 259.857 191.59C255.68 192.784 251.203 193.979 246.43 195.172C242.252 193.979 239.567 192.485 238.373 190.695C237.777 188.905 235.09 188.01 230.317 188.01C230.317 185.624 230.018 183.235 229.422 180.849C229.422 178.462 229.422 176.074 229.422 173.687C229.422 171.897 230.018 169.212 231.212 165.63C234.195 163.243 236.583 161.155 238.373 159.364C240.76 157.574 243.743 156.679 247.325 156.679C250.308 156.679 252.697 157.574 254.487 159.364C256.873 160.558 259.558 161.155 262.543 161.155C263.737 164.735 264.93 168.017 266.123 171.002C267.913 173.985 269.108 176.97 269.705 179.954ZM267.018 252.464C267.018 257.237 266.422 261.117 265.228 264.1C264.035 266.487 261.648 269.174 258.067 272.157H243.743L231.212 260.52C230.018 257.535 229.72 254.85 230.317 252.464C230.913 249.479 230.913 246.495 230.317 243.512C232.703 242.317 234.195 240.527 234.792 238.14C235.388 235.754 236.583 233.664 238.373 231.874H247.325C250.308 231.874 253.592 232.47 257.172 233.664C263.737 239.035 267.018 245.302 267.018 252.464ZM270.6 321.392C269.407 323.779 268.81 325.57 268.81 326.764C268.81 327.36 268.81 328.852 268.81 331.239C268.81 333.03 268.212 335.715 267.018 339.295C265.228 341.087 263.14 342.877 260.753 344.667C258.365 345.86 255.68 347.352 252.697 349.144C252.1 349.144 250.607 348.545 248.22 347.352C246.43 347.949 244.342 348.845 241.953 350.039C240.76 345.86 239.567 343.772 238.373 343.772C237.18 343.772 235.09 342.28 232.107 339.295C231.51 336.312 231.212 333.925 231.212 332.134C231.212 330.344 230.317 328.255 228.527 325.869C230.317 322.287 232.405 319.304 234.792 316.917C237.18 314.529 239.567 311.545 241.953 307.965C244.938 309.159 247.922 309.755 250.905 309.755C253.89 309.755 256.873 309.755 259.857 309.755L270.6 321.392ZM190.928 250.674C190.928 254.254 190.332 257.535 189.138 260.52C187.945 263.504 186.752 266.785 185.557 270.367C182.573 270.367 179.888 270.665 177.5 271.262C175.71 271.262 173.323 271.262 170.34 271.262H164.968L153.331 260.52V253.359C153.331 250.972 153.331 248.882 153.331 247.092C153.927 245.302 154.524 243.214 155.121 240.825C159.299 239.632 161.686 238.14 162.282 236.35C162.879 234.56 166.162 233.664 172.13 233.664C174.517 233.664 176.605 233.962 178.397 234.56C180.783 235.157 183.17 235.754 185.557 236.35C186.752 238.737 187.945 241.124 189.138 243.512C190.332 245.302 190.928 247.689 190.928 250.674ZM271.495 413.595C267.913 414.79 264.632 416.879 261.648 419.862C258.663 422.847 255.382 424.339 251.8 424.339C248.817 424.339 246.132 423.742 243.743 422.549C241.953 420.757 239.268 419.862 235.687 419.862C234.493 416.879 233.3 414.192 232.107 411.805C230.913 409.419 230.317 406.734 230.317 403.749C230.317 401.959 230.615 400.467 231.212 399.273C231.808 397.482 232.107 395.692 232.107 393.902C236.285 392.112 239.865 389.425 242.848 385.845C248.22 386.442 254.785 387.934 262.543 390.322C264.333 393.902 265.825 397.78 267.018 401.959C268.212 405.539 269.705 409.419 271.495 413.595ZM114.838 249.777C114.838 255.149 113.346 259.625 110.362 263.205C107.975 266.785 104.692 270.069 100.515 273.052C97.531 271.859 94.5471 270.665 91.5631 269.472C89.176 268.279 86.4905 267.682 83.5065 267.682C80.5225 263.504 78.4338 259.327 77.2401 255.149C76.6435 250.374 76.345 245.6 76.345 240.825C79.329 239.035 82.313 237.245 85.2968 235.455C88.8776 233.664 92.4583 232.769 96.039 232.769C99.6198 232.769 102.604 233.664 104.991 235.455C107.378 237.245 110.064 238.737 113.047 239.93C113.644 241.72 113.943 243.512 113.943 245.302C114.539 246.495 114.838 247.987 114.838 249.777Z" fill="black"/>
</g>
</g>
</g>
<defs>
<clipPath id="clip0_5_2">
<rect width="500" height="500" fill="white"/>
</clipPath>
</defs>
</svg>
