<svg xmlns="http://www.w3.org/2000/svg" id="canvas" viewBox="285.757 398.052 1314.914 107.926"><path d="M 323.73,419.94 C 323.33 421.04, 323.21 422.46, 323.16 425.38 C 323.11 428.30, 323.33 430.29, 323.49 434.54 C 323.65 438.78, 323.68 441.62, 323.96 446.61 C 324.25 451.60, 324.55 454.31, 324.91 459.49 C 325.27 464.68, 325.47 467.63, 325.76 472.53 C 326.05 477.44, 326.26 479.88, 326.37 484.03 C 326.48 488.19, 326.33 490.29, 326.32 493.32 C 326.31 496.34, 326.24 497.39, 326.32 499.16 C 326.40 500.93, 326.54 501.42, 326.73 502.17 C 326.93 502.92, 327.10 502.75, 327.29 502.89 C 327.47 503.03, 327.50 502.99, 327.66 502.86 C 327.83 502.72, 327.86 502.94, 328.10 502.22 C 328.35 501.50, 328.67 501.04, 328.89 499.26 C 329.11 497.48, 329.24 496.37, 329.20 493.31 C 329.17 490.24, 328.98 488.11, 328.71 483.93 C 328.44 479.74, 328.19 477.31, 327.85 472.40 C 327.51 467.49, 327.32 464.53, 327.01 459.36 C 326.70 454.18, 326.46 451.49, 326.31 446.51 C 326.15 441.53, 326.25 438.72, 326.24 434.48 C 326.22 430.24, 326.45 428.22, 326.24 425.30 C 326.03 422.37, 325.67 420.94, 325.17 419.87 C 324.67 418.80, 324.14 418.83, 323.73 419.94" style="stroke: black; fill: black;"/><path d="M 289.31,424.67 C 289.99 425.02, 290.54 425.12, 292.56 425.15 C 294.58 425.17, 295.83 425.17, 299.40 424.80 C 302.97 424.42, 305.38 423.90, 310.41 423.26 C 315.43 422.62, 318.56 422.27, 324.54 421.59 C 330.52 420.91, 334.57 420.45, 340.32 419.87 C 346.07 419.29, 348.96 419.07, 353.28 418.67 C 357.59 418.27, 360.19 418.28, 361.91 417.87 C 363.62 417.47, 363.60 416.87, 361.84 416.65 C 360.09 416.43, 357.48 416.52, 353.13 416.77 C 348.79 417.03, 345.89 417.36, 340.13 417.92 C 334.37 418.48, 330.32 418.99, 324.33 419.58 C 318.33 420.17, 315.20 420.46, 310.16 420.87 C 305.11 421.27, 302.67 421.33, 299.11 421.61 C 295.54 421.88, 294.30 421.89, 292.32 422.24 C 290.33 422.60, 289.78 422.91, 289.17 423.39 C 288.57 423.88, 288.63 424.32, 289.31 424.67" style="stroke: black; fill: black;"/><path d="M 358.44,412.29 C 357.88 412.82, 357.50 413.30, 356.90 415.21 C 356.31 417.13, 355.92 418.43, 355.47 421.86 C 355.02 425.30, 354.93 427.74, 354.63 432.39 C 354.32 437.05, 354.14 440.03, 353.95 445.14 C 353.76 450.24, 353.63 453.15, 353.68 457.93 C 353.73 462.72, 353.87 465.06, 354.19 469.06 C 354.51 473.05, 354.66 474.87, 355.26 477.89 C 355.86 480.91, 356.15 482.34, 357.19 484.17 C 358.22 486.00, 359.01 486.71, 360.42 487.04 C 361.83 487.37, 362.64 487.04, 364.24 485.83 C 365.84 484.62, 366.68 483.49, 368.42 480.98 C 370.17 478.47, 371.12 476.36, 372.96 473.27 C 374.79 470.17, 375.96 468.11, 377.61 465.52 C 379.25 462.93, 380.06 461.77, 381.19 460.31 C 382.33 458.85, 382.72 458.39, 383.28 458.24 C 383.84 458.08, 383.81 458.38, 383.99 459.54 C 384.17 460.69, 384.01 461.86, 384.17 464.01 C 384.32 466.15, 384.39 467.68, 384.77 470.27 C 385.15 472.86, 385.41 474.51, 386.05 476.95 C 386.69 479.40, 386.92 480.61, 387.97 482.51 C 389.02 484.41, 389.74 485.30, 391.30 486.47 C 392.85 487.63, 393.79 488.11, 395.75 488.33 C 397.72 488.55, 398.94 488.38, 401.13 487.58 C 403.31 486.78, 404.46 486.12, 406.66 484.35 C 408.87 482.57, 410.02 481.18, 412.16 478.70 C 414.30 476.21, 415.52 474.59, 417.35 471.91 C 419.17 469.24, 420.26 467.52, 421.29 465.32 C 422.32 463.11, 422.46 461.81, 422.49 460.90 C 422.52 459.98, 421.96 459.98, 421.44 460.74 C 420.91 461.50, 420.22 462.62, 419.86 464.70 C 419.51 466.79, 419.20 468.61, 419.64 471.17 C 420.08 473.73, 420.72 475.33, 422.06 477.51 C 423.39 479.68, 424.37 480.72, 426.33 482.06 C 428.29 483.40, 429.49 483.86, 431.84 484.21 C 434.19 484.56, 435.64 484.46, 438.09 483.81 C 440.53 483.15, 441.88 482.52, 444.08 480.93 C 446.27 479.35, 447.27 478.10, 449.07 475.89 C 450.86 473.68, 451.82 472.21, 453.05 469.87 C 454.29 467.53, 454.89 465.89, 455.26 464.19 C 455.63 462.48, 455.24 461.56, 454.91 461.32 C 454.58 461.09, 453.90 461.61, 453.59 463.02 C 453.27 464.42, 453.00 465.95, 453.34 468.34 C 453.68 470.73, 454.03 472.58, 455.29 474.98 C 456.55 477.37, 457.61 478.57, 459.65 480.31 C 461.69 482.06, 462.93 482.84, 465.48 483.70 C 468.03 484.56, 469.58 484.66, 472.39 484.60 C 475.20 484.54, 476.74 484.24, 479.54 483.40 C 482.34 482.56, 483.81 481.88, 486.39 480.41 C 488.96 478.94, 490.23 478.03, 492.41 476.06 C 494.60 474.09, 495.61 472.86, 497.33 470.58 C 499.04 468.29, 499.85 466.92, 500.98 464.64 C 502.12 462.35, 502.58 461.17, 502.99 459.15 C 503.40 457.13, 503.41 456.16, 503.05 454.54 C 502.69 452.91, 502.30 452.09, 501.19 451.01 C 500.08 449.94, 499.27 449.40, 497.48 449.16 C 495.70 448.92, 494.47 448.99, 492.28 449.81 C 490.09 450.62, 488.71 451.36, 486.52 453.23 C 484.32 455.11, 483.09 456.57, 481.30 459.19 C 479.51 461.81, 478.48 463.53, 477.55 466.35 C 476.63 469.17, 476.46 470.78, 476.68 473.28 C 476.90 475.78, 477.40 477.10, 478.64 478.84 C 479.88 480.58, 480.92 481.21, 482.88 481.98 C 484.85 482.75, 486.16 482.95, 488.47 482.70 C 490.79 482.45, 492.17 481.95, 494.45 480.72 C 496.72 479.50, 497.89 478.57, 499.84 476.59 C 501.79 474.60, 502.83 473.15, 504.19 470.81 C 505.54 468.46, 506.22 466.81, 506.61 464.86 C 507.00 462.91, 506.61 461.71, 506.13 461.06 C 505.65 460.40, 504.85 460.55, 504.21 461.59 C 503.56 462.62, 502.97 464.00, 502.91 466.23 C 502.86 468.47, 503.09 470.30, 503.94 472.77 C 504.79 475.24, 505.68 476.62, 507.17 478.58 C 508.65 480.54, 509.47 481.42, 511.38 482.58 C 513.28 483.75, 514.44 484.18, 516.69 484.39 C 518.93 484.61, 520.25 484.50, 522.62 483.67 C 524.98 482.85, 526.29 482.07, 528.52 480.27 C 530.75 478.48, 531.98 477.07, 533.75 474.69 C 535.52 472.32, 536.43 470.60, 537.37 468.41 C 538.31 466.21, 538.41 464.87, 538.45 463.72 C 538.49 462.57, 538.07 462.40, 537.58 462.66 C 537.09 462.93, 536.31 463.62, 536.00 465.05 C 535.68 466.49, 535.49 467.98, 536.01 469.83 C 536.53 471.69, 537.32 472.86, 538.59 474.33 C 539.87 475.80, 540.76 476.36, 542.39 477.16 C 544.01 477.96, 544.91 478.13, 546.72 478.33 C 548.54 478.54, 549.43 478.61, 551.46 478.21 C 553.50 477.81, 554.82 477.42, 556.91 476.32 C 559.00 475.22, 560.22 474.15, 561.91 472.70 C 563.60 471.25, 564.27 470.16, 565.36 469.08 C 566.44 468.00, 566.78 467.49, 567.33 467.31 C 567.89 467.13, 567.86 467.32, 568.13 468.17 C 568.40 469.02, 568.18 469.89, 568.67 471.55 C 569.17 473.21, 569.45 474.51, 570.61 476.45 C 571.78 478.39, 572.61 479.72, 574.49 481.27 C 576.37 482.82, 577.84 483.35, 580.02 484.18 C 582.20 485.02, 583.55 485.26, 585.39 485.46 C 587.24 485.65, 588.42 485.49, 589.23 485.17 C 590.04 484.85, 590.06 484.42, 589.44 483.87 C 588.82 483.32, 587.73 483.08, 586.14 482.43 C 584.55 481.78, 583.32 481.46, 581.48 480.64 C 579.65 479.82, 578.42 479.59, 576.96 478.33 C 575.51 477.07, 575.15 475.99, 574.21 474.34 C 573.27 472.70, 573.05 471.63, 572.26 470.10 C 571.46 468.57, 571.25 467.68, 570.24 466.70 C 569.23 465.71, 568.58 465.25, 567.20 465.18 C 565.83 465.12, 564.94 465.50, 563.37 466.37 C 561.80 467.24, 561.03 468.25, 559.34 469.54 C 557.66 470.83, 556.70 471.78, 554.95 472.82 C 553.21 473.86, 552.23 474.28, 550.64 474.74 C 549.06 475.20, 548.38 475.20, 547.03 475.11 C 545.68 475.02, 544.97 474.88, 543.90 474.28 C 542.82 473.67, 542.32 473.22, 541.66 472.06 C 541.00 470.91, 541.03 469.95, 540.60 468.51 C 540.18 467.07, 539.96 466.07, 539.52 464.88 C 539.07 463.68, 538.98 462.95, 538.38 462.53 C 537.77 462.11, 537.39 461.97, 536.48 462.77 C 535.58 463.58, 535.07 464.67, 533.87 466.57 C 532.66 468.47, 532.03 470.11, 530.46 472.27 C 528.89 474.42, 527.85 475.70, 526.03 477.34 C 524.21 478.97, 523.20 479.66, 521.38 480.44 C 519.56 481.22, 518.60 481.35, 516.94 481.25 C 515.27 481.16, 514.41 480.90, 513.07 479.97 C 511.73 479.03, 511.15 478.30, 510.24 476.58 C 509.32 474.85, 509.07 473.51, 508.49 471.36 C 507.91 469.21, 507.78 467.75, 507.35 465.83 C 506.93 463.92, 506.82 462.77, 506.37 461.79 C 505.91 460.80, 505.68 460.54, 505.06 460.91 C 504.44 461.29, 504.12 462.09, 503.26 463.66 C 502.39 465.23, 501.97 466.72, 500.73 468.77 C 499.49 470.82, 498.68 472.18, 497.06 473.93 C 495.44 475.67, 494.45 476.42, 492.63 477.49 C 490.82 478.56, 489.73 478.95, 487.98 479.28 C 486.23 479.61, 485.28 479.55, 483.87 479.14 C 482.47 478.74, 481.75 478.44, 480.94 477.24 C 480.14 476.04, 479.83 475.06, 479.85 473.14 C 479.87 471.21, 480.13 469.95, 481.06 467.61 C 481.98 465.26, 482.84 463.67, 484.47 461.42 C 486.10 459.17, 487.35 457.98, 489.21 456.35 C 491.07 454.72, 492.15 454.09, 493.77 453.27 C 495.39 452.45, 496.18 452.32, 497.31 452.24 C 498.44 452.17, 498.81 452.35, 499.42 452.90 C 500.03 453.45, 500.27 453.90, 500.37 455.00 C 500.48 456.09, 500.46 456.78, 499.95 458.38 C 499.45 459.98, 498.95 461.00, 497.85 463.00 C 496.75 465.01, 495.99 466.32, 494.43 468.40 C 492.87 470.49, 491.99 471.64, 490.03 473.41 C 488.07 475.19, 486.92 475.97, 484.61 477.27 C 482.30 478.57, 480.95 479.15, 478.48 479.90 C 476.01 480.66, 474.66 480.94, 472.27 481.06 C 469.88 481.17, 468.59 481.16, 466.54 480.50 C 464.49 479.83, 463.49 479.19, 462.01 477.73 C 460.54 476.26, 460.00 475.22, 459.16 473.16 C 458.33 471.10, 458.41 469.52, 457.84 467.43 C 457.28 465.34, 456.98 464.00, 456.34 462.68 C 455.70 461.37, 455.43 460.83, 454.64 460.87 C 453.84 460.91, 453.39 461.49, 452.37 462.90 C 451.36 464.30, 450.81 465.77, 449.54 467.90 C 448.28 470.02, 447.58 471.50, 446.05 473.53 C 444.53 475.55, 443.69 476.64, 441.91 478.03 C 440.13 479.41, 439.06 479.86, 437.13 480.45 C 435.20 481.04, 434.06 481.17, 432.27 480.97 C 430.48 480.77, 429.58 480.48, 428.19 479.45 C 426.80 478.41, 426.09 477.57, 425.33 475.77 C 424.57 473.98, 424.63 472.67, 424.38 470.48 C 424.13 468.29, 424.32 466.77, 424.07 464.82 C 423.82 462.86, 423.70 461.66, 423.12 460.69 C 422.54 459.72, 422.20 459.42, 421.19 459.98 C 420.18 460.53, 419.42 461.48, 418.05 463.46 C 416.68 465.43, 416.05 467.30, 414.32 469.87 C 412.60 472.44, 411.44 474.01, 409.42 476.31 C 407.39 478.61, 406.12 479.73, 404.20 481.35 C 402.28 482.97, 401.44 483.61, 399.80 484.40 C 398.16 485.20, 397.34 485.38, 395.99 485.34 C 394.64 485.30, 394.08 485.05, 393.05 484.21 C 392.02 483.37, 391.49 482.73, 390.84 481.12 C 390.20 479.52, 390.15 478.47, 389.82 476.18 C 389.49 473.89, 389.51 472.25, 389.20 469.67 C 388.88 467.10, 388.80 465.57, 388.22 463.33 C 387.65 461.08, 387.31 459.79, 386.31 458.44 C 385.30 457.09, 384.62 456.62, 383.18 456.59 C 381.75 456.55, 380.86 456.88, 379.15 458.26 C 377.44 459.65, 376.49 460.89, 374.62 463.51 C 372.76 466.12, 371.74 468.30, 369.82 471.35 C 367.91 474.41, 366.55 476.26, 365.03 478.77 C 363.50 481.27, 363.04 482.54, 362.20 483.88 C 361.36 485.22, 361.34 485.64, 360.81 485.48 C 360.28 485.33, 360.08 484.74, 359.54 483.10 C 359.00 481.47, 358.72 480.17, 358.12 477.31 C 357.53 474.46, 357.02 472.71, 356.58 468.83 C 356.13 464.94, 355.96 462.62, 355.90 457.91 C 355.83 453.19, 355.96 450.30, 356.25 445.24 C 356.53 440.19, 356.80 437.21, 357.32 432.63 C 357.84 428.05, 358.35 425.71, 358.85 422.34 C 359.35 418.97, 359.64 417.74, 359.81 415.78 C 359.97 413.83, 359.96 413.28, 359.69 412.58 C 359.42 411.88, 359.00 411.76, 358.44 412.29" style="stroke: black; fill: black;"/><path d="M 705.21,411.36 C 704.73 412.56, 704.54 414.21, 704.24 417.45 C 703.94 420.69, 703.77 422.84, 703.72 427.57 C 703.66 432.30, 703.74 435.78, 703.95 441.09 C 704.16 446.40, 704.35 449.21, 704.78 454.13 C 705.21 459.04, 705.43 461.61, 706.08 465.67 C 706.74 469.74, 707.05 471.85, 708.06 474.46 C 709.08 477.07, 709.98 478.17, 711.16 478.73 C 712.33 479.29, 713.23 478.54, 713.95 477.26 C 714.67 475.97, 714.99 474.29, 714.75 472.29 C 714.51 470.29, 713.61 468.15, 712.73 467.24 C 711.86 466.34, 710.81 466.62, 710.39 467.76 C 709.96 468.89, 710.28 471.07, 710.59 472.90 C 710.91 474.72, 711.68 475.91, 711.96 476.88 C 712.25 477.84, 712.24 478.42, 712.02 477.75 C 711.81 477.07, 711.61 476.00, 710.89 473.50 C 710.17 471.00, 709.23 469.16, 708.44 465.25 C 707.65 461.33, 707.39 458.78, 706.94 453.93 C 706.50 449.09, 706.37 446.27, 706.23 441.01 C 706.09 435.75, 706.09 432.31, 706.25 427.63 C 706.40 422.95, 706.91 420.85, 706.99 417.61 C 707.08 414.37, 707.02 412.69, 706.66 411.44 C 706.31 410.19, 705.70 410.16, 705.21 411.36" style="stroke: black; fill: black;"/><path d="M 667.53,415.89 C 668.04 416.12, 668.04 416.14, 669.73 416.03 C 671.42 415.92, 672.55 415.73, 675.97 415.33 C 679.39 414.93, 681.65 414.37, 686.82 414.04 C 691.99 413.70, 695.61 413.66, 701.82 413.65 C 708.03 413.63, 711.54 413.70, 717.88 413.97 C 724.23 414.24, 727.74 414.49, 733.56 414.99 C 739.37 415.50, 742.34 415.77, 746.96 416.48 C 751.57 417.19, 753.58 417.88, 756.65 418.54 C 759.72 419.21, 760.72 419.47, 762.31 419.82 C 763.89 420.18, 764.06 420.35, 764.57 420.32 C 765.08 420.30, 765.21 420.16, 764.88 419.71 C 764.55 419.27, 764.45 418.84, 762.92 418.10 C 761.38 417.35, 760.35 416.73, 757.21 416.01 C 754.08 415.29, 751.93 415.04, 747.23 414.49 C 742.52 413.93, 739.55 413.69, 733.70 413.25 C 727.85 412.80, 724.33 412.54, 717.96 412.24 C 711.59 411.94, 708.08 411.85, 701.84 411.73 C 695.59 411.60, 691.98 411.55, 686.73 411.61 C 681.49 411.66, 679.12 411.66, 675.61 412.00 C 672.10 412.34, 670.86 412.73, 669.18 413.30 C 667.49 413.88, 667.51 414.35, 667.18 414.87 C 666.85 415.38, 667.02 415.66, 667.53 415.89" style="stroke: black; fill: black;"/><path d="M 759.03,448.29 C 758.43 448.57, 758.08 449.08, 757.36 450.20 C 756.65 451.33, 756.13 452.10, 755.45 453.92 C 754.78 455.74, 754.29 457.11, 753.99 459.29 C 753.70 461.48, 753.63 462.80, 753.97 464.85 C 754.30 466.90, 754.65 467.98, 755.68 469.56 C 756.70 471.14, 757.51 471.94, 759.10 472.76 C 760.69 473.59, 761.70 473.85, 763.63 473.67 C 765.55 473.50, 766.82 473.13, 768.74 471.91 C 770.66 470.68, 771.78 469.73, 773.23 467.55 C 774.68 465.38, 775.23 463.83, 776.00 461.03 C 776.78 458.23, 777.11 456.40, 777.12 453.54 C 777.12 450.69, 776.93 449.12, 776.04 446.77 C 775.15 444.41, 774.28 443.26, 772.67 441.75 C 771.05 440.25, 769.96 439.65, 767.98 439.24 C 765.99 438.82, 764.64 438.96, 762.72 439.67 C 760.81 440.38, 759.67 441.12, 758.40 442.79 C 757.13 444.46, 756.61 445.72, 756.37 448.02 C 756.14 450.31, 756.27 451.79, 757.22 454.26 C 758.18 456.73, 759.03 458.25, 761.17 460.37 C 763.30 462.49, 764.94 463.38, 767.91 464.86 C 770.88 466.35, 772.66 466.97, 776.01 467.79 C 779.35 468.60, 781.31 468.78, 784.63 468.93 C 787.95 469.08, 789.69 469.06, 792.61 468.56 C 795.54 468.05, 796.93 467.65, 799.26 466.42 C 801.60 465.20, 802.67 464.29, 804.29 462.43 C 805.91 460.57, 806.61 459.32, 807.37 457.13 C 808.13 454.94, 808.30 453.23, 808.09 451.48 C 807.88 449.74, 807.12 448.75, 806.31 448.40 C 805.51 448.06, 804.71 448.50, 804.06 449.75 C 803.42 451.00, 802.96 452.40, 803.09 454.66 C 803.22 456.91, 803.67 458.72, 804.72 461.02 C 805.76 463.33, 806.76 464.55, 808.30 466.17 C 809.84 467.78, 810.67 468.37, 812.43 469.10 C 814.19 469.82, 815.21 469.90, 817.11 469.79 C 819.00 469.68, 820.03 469.44, 821.91 468.54 C 823.80 467.65, 824.82 466.93, 826.54 465.32 C 828.26 463.72, 829.16 462.52, 830.53 460.53 C 831.90 458.55, 832.69 457.07, 833.38 455.39 C 834.08 453.71, 834.00 452.62, 834.00 452.14 C 834.01 451.67, 833.53 451.96, 833.39 453.02 C 833.25 454.09, 832.99 455.33, 833.31 457.48 C 833.63 459.64, 833.84 461.41, 834.99 463.79 C 836.15 466.17, 837.32 467.48, 839.07 469.39 C 840.82 471.30, 841.65 472.30, 843.74 473.36 C 845.83 474.41, 848.24 474.72, 849.52 474.67 C 850.79 474.61, 850.91 473.90, 850.09 473.09 C 849.28 472.27, 847.07 471.79, 845.44 470.58 C 843.81 469.36, 843.21 468.76, 841.95 467.02 C 840.69 465.28, 840.05 464.01, 839.16 461.89 C 838.26 459.78, 838.15 458.36, 837.45 456.44 C 836.75 454.52, 836.49 453.38, 835.65 452.29 C 834.82 451.20, 834.36 450.76, 833.27 450.99 C 832.17 451.21, 831.43 451.98, 830.20 453.41 C 828.96 454.84, 828.35 456.31, 827.07 458.15 C 825.80 459.99, 825.19 461.15, 823.84 462.61 C 822.49 464.08, 821.71 464.64, 820.31 465.46 C 818.90 466.29, 818.16 466.53, 816.82 466.73 C 815.47 466.93, 814.74 467.01, 813.59 466.45 C 812.44 465.90, 811.97 465.39, 811.06 463.95 C 810.16 462.51, 809.77 461.25, 809.06 459.26 C 808.36 457.26, 808.04 455.82, 807.54 453.97 C 807.04 452.13, 806.97 451.06, 806.58 450.04 C 806.20 449.03, 805.99 448.63, 805.62 448.90 C 805.24 449.16, 805.04 449.93, 804.71 451.35 C 804.38 452.77, 804.52 454.18, 803.95 455.99 C 803.38 457.79, 803.07 458.85, 801.85 460.38 C 800.62 461.90, 799.79 462.65, 797.83 463.62 C 795.87 464.59, 794.67 464.80, 792.06 465.22 C 789.45 465.64, 787.82 465.82, 784.77 465.71 C 781.71 465.59, 779.84 465.43, 776.78 464.66 C 773.73 463.88, 772.07 463.22, 769.48 461.83 C 766.89 460.44, 765.60 459.49, 763.82 457.70 C 762.04 455.92, 761.38 454.78, 760.57 452.90 C 759.76 451.02, 759.67 449.93, 759.77 448.30 C 759.86 446.67, 760.21 445.88, 761.03 444.75 C 761.86 443.63, 762.61 443.20, 763.88 442.69 C 765.15 442.17, 766.05 441.94, 767.38 442.19 C 768.72 442.44, 769.46 442.80, 770.55 443.93 C 771.65 445.06, 772.31 445.94, 772.86 447.84 C 773.42 449.74, 773.45 451.01, 773.31 453.44 C 773.17 455.86, 772.82 457.56, 772.16 459.98 C 771.51 462.39, 771.13 463.72, 770.04 465.51 C 768.95 467.29, 768.09 467.91, 766.72 468.91 C 765.35 469.90, 764.46 470.23, 763.21 470.48 C 761.96 470.72, 761.43 470.64, 760.46 470.14 C 759.50 469.63, 758.96 469.08, 758.38 467.95 C 757.79 466.82, 757.56 466.08, 757.53 464.50 C 757.51 462.91, 757.84 461.90, 758.25 460.04 C 758.66 458.18, 759.15 456.94, 759.58 455.19 C 760.01 453.44, 760.23 452.58, 760.39 451.30 C 760.54 450.02, 760.64 449.39, 760.36 448.79 C 760.09 448.18, 759.63 448.01, 759.03 448.29" style="stroke: black; fill: black;"/><path d="M 983.08,419.82 C 982.60 420.72, 982.25 421.81, 982.08 424.37 C 981.90 426.93, 981.97 428.74, 982.21 432.62 C 982.44 436.49, 982.72 439.18, 983.25 443.74 C 983.78 448.31, 984.17 450.90, 984.87 455.44 C 985.57 459.99, 986.01 462.56, 986.77 466.46 C 987.52 470.36, 987.88 472.20, 988.66 474.94 C 989.44 477.67, 989.96 478.65, 990.69 480.13 C 991.41 481.61, 991.81 481.81, 992.28 482.34 C 992.75 482.86, 992.83 482.71, 993.05 482.75 C 993.28 482.79, 993.32 482.73, 993.41 482.53 C 993.49 482.34, 993.55 482.43, 993.48 481.78 C 993.40 481.13, 993.39 480.82, 993.03 479.28 C 992.67 477.74, 992.42 476.75, 991.67 474.08 C 990.92 471.41, 990.16 469.72, 989.28 465.92 C 988.40 462.12, 987.96 459.56, 987.28 455.07 C 986.60 450.58, 986.28 447.99, 985.88 443.47 C 985.48 438.95, 985.41 436.29, 985.28 432.47 C 985.16 428.65, 985.41 426.90, 985.24 424.38 C 985.08 421.86, 984.91 420.77, 984.48 419.85 C 984.04 418.94, 983.56 418.92, 983.08 419.82" style="stroke: black; fill: black;"/><path d="M 960.94,437.83 C 961.61 437.35, 961.72 436.33, 962.99 434.91 C 964.25 433.50, 964.97 432.50, 967.25 430.75 C 969.54 429.00, 970.77 427.70, 974.41 426.16 C 978.04 424.62, 980.52 423.82, 985.41 423.06 C 990.30 422.29, 993.52 422.14, 998.85 422.31 C 1004.18 422.48, 1007.30 422.86, 1012.05 423.90 C 1016.80 424.94, 1019.17 425.86, 1022.60 427.50 C 1026.03 429.14, 1027.55 430.29, 1029.21 432.10 C 1030.88 433.90, 1031.18 434.76, 1030.93 436.51 C 1030.68 438.26, 1029.74 439.14, 1027.95 440.85 C 1026.17 442.57, 1024.92 443.55, 1022.01 445.09 C 1019.11 446.62, 1016.90 447.43, 1013.43 448.52 C 1009.96 449.61, 1007.63 449.83, 1004.67 450.54 C 1001.72 451.24, 1000.48 451.59, 998.66 452.03 C 996.84 452.47, 996.21 452.41, 995.59 452.73 C 994.97 453.05, 994.92 453.30, 995.58 453.64 C 996.24 453.97, 996.94 454.35, 998.90 454.40 C 1000.86 454.45, 1002.28 454.46, 1005.38 453.89 C 1008.48 453.32, 1010.77 452.73, 1014.40 451.54 C 1018.03 450.35, 1020.35 449.63, 1023.52 447.93 C 1026.70 446.23, 1028.30 445.28, 1030.26 443.04 C 1032.22 440.81, 1033.13 439.30, 1033.32 436.76 C 1033.51 434.22, 1033.14 432.61, 1031.20 430.34 C 1029.25 428.06, 1027.33 427.08, 1023.59 425.38 C 1019.85 423.68, 1017.42 422.88, 1012.49 421.84 C 1007.56 420.81, 1004.41 420.43, 998.93 420.23 C 993.44 420.02, 990.19 420.13, 985.08 420.80 C 979.98 421.47, 977.40 422.15, 973.40 423.58 C 969.41 425.00, 967.71 426.00, 965.12 427.91 C 962.53 429.81, 961.57 431.22, 960.47 433.10 C 959.36 434.98, 959.51 436.34, 959.61 437.28 C 959.70 438.23, 960.26 438.30, 960.94 437.83" style="stroke: black; fill: black;"/><path d="M 1059.08,416.85 C 1058.62 417.41, 1058.45 417.91, 1058.05 419.72 C 1057.64 421.53, 1057.32 422.77, 1057.07 425.88 C 1056.83 429.00, 1056.90 431.34, 1056.84 435.30 C 1056.79 439.27, 1056.75 441.60, 1056.80 445.71 C 1056.85 449.82, 1056.84 452.20, 1057.10 455.87 C 1057.37 459.54, 1057.39 461.31, 1058.12 464.06 C 1058.85 466.81, 1059.44 468.04, 1060.76 469.63 C 1062.08 471.22, 1062.95 471.72, 1064.73 472.01 C 1066.51 472.30, 1067.63 472.01, 1069.68 471.09 C 1071.73 470.17, 1072.87 469.14, 1074.98 467.41 C 1077.09 465.68, 1078.35 464.34, 1080.23 462.45 C 1082.11 460.55, 1083.20 459.27, 1084.38 457.93 C 1085.57 456.59, 1085.73 455.89, 1086.16 455.73 C 1086.58 455.58, 1086.35 456.06, 1086.51 457.15 C 1086.66 458.24, 1086.57 459.35, 1086.94 461.17 C 1087.32 462.99, 1087.51 464.34, 1088.39 466.26 C 1089.27 468.18, 1090.03 469.26, 1091.35 470.78 C 1092.66 472.30, 1093.61 473.07, 1094.98 473.85 C 1096.34 474.64, 1097.39 474.77, 1098.16 474.72 C 1098.92 474.67, 1099.06 474.24, 1098.79 473.60 C 1098.53 472.97, 1097.72 472.57, 1096.83 471.54 C 1095.94 470.52, 1095.26 469.87, 1094.34 468.48 C 1093.42 467.09, 1092.92 466.29, 1092.24 464.60 C 1091.55 462.90, 1091.58 461.72, 1090.91 460.00 C 1090.24 458.28, 1089.84 457.17, 1088.89 455.99 C 1087.93 454.80, 1087.45 454.21, 1086.13 454.07 C 1084.81 453.94, 1084.07 454.29, 1082.29 455.32 C 1080.51 456.35, 1079.25 457.47, 1077.22 459.25 C 1075.19 461.03, 1073.98 462.43, 1072.13 464.22 C 1070.29 466.01, 1069.44 467.11, 1068.01 468.21 C 1066.57 469.32, 1066.01 469.75, 1064.97 469.75 C 1063.92 469.74, 1063.53 469.47, 1062.77 468.18 C 1062.02 466.89, 1061.77 465.81, 1061.20 463.30 C 1060.63 460.79, 1060.26 459.16, 1059.94 455.64 C 1059.62 452.12, 1059.59 449.74, 1059.61 445.70 C 1059.62 441.66, 1059.75 439.34, 1060.01 435.43 C 1060.28 431.53, 1060.74 429.26, 1060.95 426.16 C 1061.15 423.07, 1061.16 421.80, 1061.05 419.96 C 1060.93 418.11, 1060.77 417.55, 1060.37 416.93 C 1059.98 416.30, 1059.55 416.29, 1059.08 416.85" style="stroke: black; fill: black;"/><path d="M 1133.25,450.71 C 1133.10 450.00, 1132.77 449.15, 1131.57 448.31 C 1130.37 447.47, 1129.39 446.74, 1127.24 446.50 C 1125.09 446.27, 1123.48 446.26, 1120.81 447.12 C 1118.13 447.98, 1116.44 448.89, 1113.86 450.80 C 1111.28 452.70, 1109.73 454.16, 1107.89 456.63 C 1106.05 459.10, 1105.24 460.65, 1104.67 463.13 C 1104.11 465.62, 1104.19 467.08, 1105.08 469.05 C 1105.98 471.01, 1107.02 471.97, 1109.14 472.95 C 1111.26 473.93, 1112.92 474.07, 1115.67 473.94 C 1118.43 473.82, 1120.10 473.33, 1122.92 472.33 C 1125.74 471.33, 1127.32 470.49, 1129.78 468.93 C 1132.23 467.37, 1133.48 466.29, 1135.18 464.52 C 1136.89 462.75, 1137.56 461.63, 1138.30 460.08 C 1139.05 458.53, 1139.11 457.62, 1138.92 456.77 C 1138.72 455.92, 1138.07 455.53, 1137.33 455.82 C 1136.59 456.11, 1135.67 456.88, 1135.23 458.22 C 1134.80 459.56, 1134.73 460.77, 1135.15 462.52 C 1135.57 464.28, 1136.14 465.40, 1137.34 467.00 C 1138.53 468.60, 1139.34 469.38, 1141.15 470.52 C 1142.95 471.67, 1144.12 472.21, 1146.36 472.71 C 1148.60 473.22, 1149.88 473.27, 1152.34 473.05 C 1154.80 472.83, 1156.29 472.52, 1158.67 471.61 C 1161.05 470.70, 1162.44 469.89, 1164.24 468.50 C 1166.03 467.11, 1166.80 465.99, 1167.64 464.66 C 1168.48 463.33, 1168.54 462.52, 1168.45 461.84 C 1168.35 461.16, 1167.84 460.97, 1167.16 461.26 C 1166.48 461.56, 1165.65 462.13, 1165.05 463.29 C 1164.45 464.46, 1164.11 465.58, 1164.16 467.10 C 1164.22 468.62, 1164.62 469.59, 1165.32 470.90 C 1166.03 472.20, 1166.52 472.92, 1167.67 473.61 C 1168.83 474.31, 1169.55 474.49, 1171.08 474.36 C 1172.62 474.22, 1173.52 473.85, 1175.34 472.93 C 1177.17 472.00, 1178.26 471.31, 1180.22 469.74 C 1182.18 468.17, 1183.23 466.99, 1185.14 465.08 C 1187.05 463.17, 1188.16 461.96, 1189.77 460.21 C 1191.37 458.46, 1192.18 457.49, 1193.16 456.31 C 1194.15 455.13, 1194.38 454.62, 1194.69 454.30 C 1195.00 453.99, 1194.82 454.16, 1194.72 454.74 C 1194.63 455.32, 1194.23 455.89, 1194.21 457.20 C 1194.19 458.52, 1194.12 459.64, 1194.62 461.31 C 1195.12 462.97, 1195.62 464.08, 1196.71 465.53 C 1197.80 466.98, 1198.60 467.68, 1200.08 468.56 C 1201.55 469.44, 1202.41 469.69, 1204.08 469.93 C 1205.75 470.16, 1206.58 470.17, 1208.44 469.73 C 1210.30 469.29, 1211.43 468.83, 1213.36 467.72 C 1215.30 466.61, 1216.37 465.67, 1218.12 464.19 C 1219.87 462.70, 1220.72 461.71, 1222.12 460.28 C 1223.52 458.84, 1224.28 457.99, 1225.12 457.02 C 1225.95 456.06, 1226.07 455.70, 1226.32 455.47 C 1226.58 455.23, 1226.35 455.34, 1226.39 455.87 C 1226.43 456.39, 1226.19 456.90, 1226.51 458.09 C 1226.83 459.29, 1227.11 460.33, 1227.98 461.82 C 1228.85 463.32, 1229.55 464.19, 1230.88 465.56 C 1232.21 466.93, 1233.05 467.60, 1234.65 468.67 C 1236.24 469.74, 1237.20 470.26, 1238.84 470.91 C 1240.48 471.56, 1241.47 471.84, 1242.84 471.93 C 1244.21 472.03, 1245.08 471.75, 1245.67 471.40 C 1246.27 471.04, 1246.23 470.62, 1245.81 470.15 C 1245.38 469.69, 1244.65 469.61, 1243.56 469.09 C 1242.47 468.56, 1241.73 468.22, 1240.37 467.52 C 1239.01 466.83, 1238.07 466.52, 1236.76 465.60 C 1235.45 464.67, 1234.82 464.11, 1233.83 462.90 C 1232.85 461.70, 1232.60 460.86, 1231.83 459.56 C 1231.05 458.26, 1230.73 457.39, 1229.97 456.39 C 1229.21 455.39, 1228.82 455.10, 1228.03 454.57 C 1227.23 454.04, 1226.97 453.76, 1226.00 453.76 C 1225.03 453.75, 1224.47 453.82, 1223.16 454.56 C 1221.86 455.30, 1221.01 456.13, 1219.47 457.44 C 1217.94 458.75, 1217.14 459.71, 1215.50 461.09 C 1213.86 462.47, 1212.90 463.28, 1211.29 464.34 C 1209.68 465.41, 1208.83 465.92, 1207.47 466.42 C 1206.11 466.92, 1205.60 466.97, 1204.48 466.84 C 1203.37 466.71, 1202.81 466.45, 1201.89 465.77 C 1200.97 465.09, 1200.50 464.58, 1199.90 463.44 C 1199.29 462.30, 1199.25 461.46, 1198.87 460.08 C 1198.49 458.71, 1198.46 457.81, 1198.01 456.56 C 1197.55 455.31, 1197.34 454.63, 1196.59 453.85 C 1195.85 453.07, 1195.40 452.64, 1194.30 452.66 C 1193.20 452.68, 1192.56 453.00, 1191.10 453.95 C 1189.64 454.91, 1188.78 455.81, 1187.00 457.44 C 1185.22 459.07, 1184.11 460.28, 1182.22 462.08 C 1180.33 463.89, 1179.32 464.97, 1177.54 466.46 C 1175.77 467.95, 1174.77 468.53, 1173.34 469.51 C 1171.92 470.50, 1171.26 470.98, 1170.42 471.38 C 1169.57 471.78, 1169.45 471.82, 1169.11 471.50 C 1168.77 471.18, 1168.74 470.64, 1168.73 469.78 C 1168.72 468.92, 1168.96 468.30, 1169.07 467.20 C 1169.18 466.10, 1169.34 465.38, 1169.27 464.29 C 1169.21 463.20, 1169.14 462.40, 1168.75 461.73 C 1168.35 461.06, 1168.01 460.80, 1167.28 460.95 C 1166.55 461.11, 1166.14 461.59, 1165.09 462.50 C 1164.03 463.40, 1163.56 464.39, 1162.00 465.49 C 1160.44 466.60, 1159.30 467.25, 1157.29 468.02 C 1155.29 468.79, 1154.00 469.11, 1151.97 469.34 C 1149.94 469.57, 1148.90 469.55, 1147.13 469.18 C 1145.35 468.81, 1144.43 468.34, 1143.10 467.48 C 1141.77 466.61, 1141.18 466.05, 1140.47 464.85 C 1139.75 463.66, 1139.82 462.75, 1139.53 461.49 C 1139.25 460.24, 1139.25 459.60, 1139.04 458.59 C 1138.82 457.57, 1138.81 456.88, 1138.47 456.42 C 1138.13 455.96, 1137.89 455.90, 1137.33 456.30 C 1136.76 456.70, 1136.56 457.29, 1135.64 458.43 C 1134.71 459.57, 1134.29 460.55, 1132.71 462.00 C 1131.14 463.45, 1129.99 464.34, 1127.77 465.66 C 1125.54 466.98, 1124.06 467.69, 1121.58 468.60 C 1119.09 469.50, 1117.62 469.88, 1115.35 470.19 C 1113.08 470.49, 1111.80 470.56, 1110.22 470.13 C 1108.64 469.69, 1107.95 469.23, 1107.44 468.01 C 1106.94 466.79, 1107.02 465.82, 1107.71 464.02 C 1108.40 462.22, 1109.20 461.00, 1110.89 459.00 C 1112.59 456.99, 1113.93 455.58, 1116.17 453.99 C 1118.42 452.40, 1119.94 451.79, 1122.10 451.05 C 1124.27 450.31, 1125.39 450.31, 1127.00 450.30 C 1128.62 450.30, 1129.12 450.73, 1130.19 451.04 C 1131.25 451.35, 1131.69 451.90, 1132.31 451.83 C 1132.92 451.77, 1133.40 451.41, 1133.25 450.71" style="stroke: black; fill: black;"/><path d="M 1363.30,411.80 C 1362.92 412.43, 1362.85 412.92, 1362.66 414.89 C 1362.48 416.86, 1362.38 418.13, 1362.39 421.65 C 1362.39 425.17, 1362.62 427.67, 1362.67 432.50 C 1362.71 437.34, 1362.53 440.68, 1362.62 445.83 C 1362.71 450.98, 1362.78 453.74, 1363.12 458.25 C 1363.47 462.76, 1363.72 464.97, 1364.35 468.40 C 1364.99 471.83, 1365.46 473.40, 1366.30 475.41 C 1367.14 477.41, 1367.80 477.72, 1368.54 478.42 C 1369.27 479.12, 1369.62 478.90, 1369.97 478.91 C 1370.32 478.91, 1370.32 478.72, 1370.28 478.46 C 1370.23 478.20, 1370.03 478.38, 1369.75 477.59 C 1369.46 476.80, 1369.40 476.45, 1368.85 474.51 C 1368.29 472.57, 1367.66 471.18, 1366.97 467.89 C 1366.29 464.60, 1365.83 462.47, 1365.42 458.06 C 1365.01 453.64, 1364.95 450.91, 1364.93 445.81 C 1364.91 440.70, 1365.17 437.36, 1365.33 432.53 C 1365.48 427.71, 1365.66 425.21, 1365.71 421.67 C 1365.76 418.14, 1365.82 416.84, 1365.59 414.85 C 1365.36 412.86, 1365.02 412.33, 1364.57 411.72 C 1364.11 411.11, 1363.68 411.17, 1363.30 411.80" style="stroke: black; fill: black;"/><path d="M 1335.96,416.99 C 1337.46 416.69, 1339.22 415.55, 1342.83 414.14 C 1346.44 412.72, 1348.91 411.52, 1354.03 409.93 C 1359.14 408.35, 1362.64 407.43, 1368.42 406.21 C 1374.21 404.98, 1377.45 404.41, 1382.95 403.82 C 1388.45 403.22, 1391.24 403.24, 1395.93 403.23 C 1400.61 403.23, 1403.00 403.42, 1406.37 403.77 C 1409.74 404.12, 1410.92 404.61, 1412.79 404.99 C 1414.67 405.38, 1415.03 405.38, 1415.75 405.70 C 1416.46 406.01, 1416.13 406.44, 1416.38 406.57 C 1416.63 406.69, 1416.94 406.73, 1416.99 406.33 C 1417.03 405.93, 1417.31 405.31, 1416.60 404.56 C 1415.89 403.80, 1415.45 403.22, 1413.45 402.56 C 1411.45 401.90, 1410.11 401.52, 1406.60 401.24 C 1403.09 400.96, 1400.67 401.04, 1395.89 401.18 C 1391.12 401.32, 1388.31 401.32, 1382.74 401.94 C 1377.17 402.56, 1373.89 403.09, 1368.02 404.27 C 1362.15 405.45, 1358.61 406.31, 1353.40 407.85 C 1348.18 409.39, 1345.55 410.40, 1341.94 411.96 C 1338.32 413.53, 1336.51 414.67, 1335.31 415.68 C 1334.12 416.68, 1334.45 417.30, 1335.96 416.99" style="stroke: black; fill: black;"/><path d="M 1346.48,454.41 C 1347.24 454.65, 1347.84 454.64, 1349.97 454.39 C 1352.09 454.15, 1353.62 453.84, 1357.10 453.19 C 1360.59 452.54, 1362.88 451.89, 1367.37 451.13 C 1371.86 450.36, 1374.70 449.91, 1379.55 449.34 C 1384.41 448.77, 1387.07 448.49, 1391.66 448.27 C 1396.25 448.05, 1398.64 448.08, 1402.50 448.26 C 1406.37 448.44, 1408.18 448.74, 1410.98 449.17 C 1413.78 449.60, 1414.92 449.83, 1416.49 450.41 C 1418.06 450.99, 1418.36 451.21, 1418.84 452.05 C 1419.32 452.90, 1419.04 453.40, 1418.87 454.63 C 1418.71 455.85, 1418.33 456.63, 1418.03 458.18 C 1417.73 459.74, 1417.42 460.66, 1417.39 462.41 C 1417.36 464.15, 1417.39 465.30, 1417.88 466.91 C 1418.37 468.52, 1418.99 469.34, 1419.85 470.46 C 1420.71 471.59, 1421.28 472.08, 1422.18 472.54 C 1423.09 473.00, 1423.86 472.93, 1424.39 472.76 C 1424.92 472.58, 1424.95 472.11, 1424.83 471.67 C 1424.71 471.23, 1424.21 471.17, 1423.78 470.56 C 1423.35 469.94, 1423.17 469.52, 1422.68 468.60 C 1422.19 467.67, 1421.63 467.15, 1421.32 465.94 C 1421.02 464.73, 1421.09 463.99, 1421.17 462.54 C 1421.26 461.10, 1421.62 460.29, 1421.76 458.69 C 1421.89 457.10, 1422.06 456.14, 1421.85 454.58 C 1421.64 453.01, 1421.58 452.18, 1420.71 450.88 C 1419.84 449.58, 1419.37 449.01, 1417.52 448.07 C 1415.66 447.14, 1414.42 446.68, 1411.43 446.22 C 1408.44 445.77, 1406.55 445.84, 1402.57 445.80 C 1398.59 445.76, 1396.20 445.77, 1391.55 446.01 C 1386.90 446.26, 1384.22 446.55, 1379.30 447.04 C 1374.39 447.53, 1371.53 447.88, 1366.98 448.46 C 1362.42 449.03, 1360.05 449.32, 1356.52 449.91 C 1352.99 450.49, 1351.40 450.74, 1349.33 451.39 C 1347.25 452.04, 1346.72 452.56, 1346.15 453.16 C 1345.58 453.76, 1345.71 454.16, 1346.48 454.41" style="stroke: black; fill: black;"/><path d="M 1424.91,419.40 C 1425.08 418.83, 1424.95 418.15, 1424.61 418.15 C 1424.27 418.14, 1423.46 418.93, 1423.20 419.37 C 1422.93 419.82, 1423.11 420.34, 1423.26 420.37 C 1423.42 420.40, 1423.91 419.58, 1423.99 419.54 C 1424.07 419.50, 1423.84 419.79, 1423.66 420.18 C 1423.47 420.58, 1423.06 421.36, 1423.08 421.51 C 1423.10 421.67, 1423.38 421.40, 1423.75 420.98 C 1424.11 420.55, 1424.74 419.97, 1424.91 419.40" style="stroke: black; fill: black;"/><path d="M 1449.80,416.80 C 1449.32 417.51, 1449.05 418.35, 1448.78 420.41 C 1448.51 422.47, 1448.51 423.86, 1448.45 427.10 C 1448.39 430.33, 1448.52 432.63, 1448.49 436.58 C 1448.45 440.53, 1448.35 442.84, 1448.27 446.83 C 1448.19 450.83, 1448.05 452.98, 1448.08 456.57 C 1448.10 460.16, 1448.02 461.90, 1448.40 464.79 C 1448.78 467.67, 1449.06 468.90, 1449.99 470.98 C 1450.92 473.06, 1451.54 474.05, 1453.07 475.18 C 1454.60 476.31, 1455.69 476.61, 1457.63 476.64 C 1459.57 476.66, 1460.69 476.29, 1462.75 475.32 C 1464.80 474.34, 1465.89 473.52, 1467.92 471.76 C 1469.96 470.00, 1471.06 468.77, 1472.92 466.50 C 1474.79 464.24, 1475.80 462.86, 1477.25 460.45 C 1478.69 458.03, 1479.45 456.47, 1480.13 454.44 C 1480.82 452.42, 1480.87 451.30, 1480.68 450.32 C 1480.49 449.34, 1479.95 449.10, 1479.19 449.54 C 1478.42 449.98, 1477.55 450.75, 1476.86 452.52 C 1476.16 454.29, 1475.85 455.93, 1475.71 458.40 C 1475.56 460.86, 1475.67 462.50, 1476.14 464.83 C 1476.62 467.17, 1477.01 468.39, 1478.07 470.07 C 1479.12 471.75, 1479.91 472.42, 1481.41 473.25 C 1482.92 474.07, 1483.82 474.25, 1485.61 474.19 C 1487.40 474.14, 1488.46 473.84, 1490.37 472.97 C 1492.29 472.11, 1493.36 471.38, 1495.19 469.86 C 1497.02 468.35, 1497.99 467.21, 1499.52 465.39 C 1501.04 463.58, 1501.99 462.29, 1502.83 460.79 C 1503.66 459.29, 1503.68 458.39, 1503.70 457.89 C 1503.73 457.40, 1503.31 457.52, 1502.97 458.33 C 1502.63 459.13, 1502.14 460.13, 1502.01 461.92 C 1501.87 463.71, 1501.82 465.22, 1502.29 467.28 C 1502.77 469.33, 1503.25 470.49, 1504.37 472.20 C 1505.48 473.92, 1506.17 474.74, 1507.86 475.86 C 1509.55 476.98, 1510.66 477.51, 1512.82 477.82 C 1514.98 478.14, 1516.29 477.99, 1518.66 477.43 C 1521.03 476.88, 1522.28 476.36, 1524.66 475.04 C 1527.05 473.72, 1528.36 472.66, 1530.57 470.83 C 1532.78 469.00, 1534.06 467.62, 1535.71 465.90 C 1537.36 464.19, 1538.00 463.24, 1538.84 462.26 C 1539.67 461.27, 1539.82 460.93, 1539.89 460.97 C 1539.96 461.01, 1539.43 461.42, 1539.19 462.45 C 1538.95 463.49, 1538.60 464.51, 1538.68 466.14 C 1538.75 467.77, 1538.90 468.90, 1539.58 470.60 C 1540.25 472.31, 1540.78 473.27, 1542.04 474.66 C 1543.31 476.06, 1544.13 476.66, 1545.89 477.56 C 1547.65 478.46, 1548.77 479.03, 1550.85 479.17 C 1552.93 479.30, 1555.19 478.83, 1556.27 478.25 C 1557.36 477.67, 1557.26 476.86, 1556.27 476.28 C 1555.28 475.71, 1553.12 475.74, 1551.34 475.38 C 1549.56 475.01, 1548.72 475.05, 1547.38 474.46 C 1546.04 473.87, 1545.44 473.47, 1544.64 472.44 C 1543.84 471.42, 1543.70 470.70, 1543.36 469.35 C 1543.01 467.99, 1543.18 467.12, 1542.93 465.68 C 1542.67 464.23, 1542.58 463.28, 1542.08 462.11 C 1541.57 460.94, 1541.36 460.23, 1540.40 459.82 C 1539.44 459.41, 1538.74 459.41, 1537.28 460.05 C 1535.81 460.70, 1534.93 461.50, 1533.07 463.03 C 1531.20 464.56, 1530.01 465.95, 1527.95 467.69 C 1525.89 469.44, 1524.79 470.51, 1522.76 471.76 C 1520.72 473.00, 1519.67 473.39, 1517.76 473.93 C 1515.86 474.46, 1514.86 474.58, 1513.23 474.44 C 1511.60 474.30, 1510.79 473.99, 1509.63 473.21 C 1508.46 472.43, 1507.97 471.89, 1507.40 470.54 C 1506.83 469.19, 1506.99 468.26, 1506.79 466.49 C 1506.59 464.71, 1506.73 463.38, 1506.40 461.67 C 1506.06 459.96, 1505.80 458.92, 1505.12 457.92 C 1504.44 456.93, 1504.04 456.57, 1503.01 456.69 C 1501.99 456.80, 1501.33 457.31, 1499.99 458.50 C 1498.65 459.69, 1497.82 460.97, 1496.33 462.64 C 1494.84 464.31, 1494.08 465.43, 1492.56 466.84 C 1491.03 468.26, 1490.14 468.84, 1488.69 469.71 C 1487.25 470.57, 1486.51 470.92, 1485.32 471.15 C 1484.12 471.39, 1483.62 471.39, 1482.72 470.88 C 1481.82 470.38, 1481.33 469.92, 1480.82 468.62 C 1480.31 467.33, 1480.16 466.38, 1480.16 464.40 C 1480.16 462.42, 1480.69 460.94, 1480.84 458.71 C 1480.98 456.48, 1480.97 454.98, 1480.90 453.24 C 1480.83 451.49, 1480.85 450.68, 1480.47 449.99 C 1480.10 449.29, 1479.77 449.16, 1479.04 449.74 C 1478.30 450.33, 1477.81 451.18, 1476.78 452.91 C 1475.75 454.64, 1475.27 456.18, 1473.88 458.39 C 1472.49 460.60, 1471.57 461.88, 1469.84 463.96 C 1468.12 466.05, 1467.03 467.16, 1465.27 468.81 C 1463.52 470.46, 1462.62 471.23, 1461.06 472.22 C 1459.50 473.21, 1458.78 473.58, 1457.49 473.77 C 1456.20 473.95, 1455.60 473.91, 1454.62 473.14 C 1453.65 472.37, 1453.23 471.67, 1452.63 469.92 C 1452.02 468.16, 1451.92 467.05, 1451.58 464.37 C 1451.24 461.69, 1451.02 460.01, 1450.92 456.52 C 1450.82 453.02, 1450.93 450.88, 1451.07 446.91 C 1451.20 442.94, 1451.38 440.63, 1451.59 436.68 C 1451.80 432.73, 1452.06 430.40, 1452.12 427.16 C 1452.18 423.92, 1452.07 422.53, 1451.88 420.47 C 1451.69 418.41, 1451.59 417.59, 1451.17 416.86 C 1450.75 416.13, 1450.27 416.09, 1449.80 416.80" style="stroke: black; fill: black;"/><path d="M 1593.83,453.65 C 1593.46 452.91, 1592.84 452.10, 1591.26 451.22 C 1589.69 450.34, 1588.50 449.78, 1585.95 449.24 C 1583.40 448.70, 1581.55 448.45, 1578.53 448.51 C 1575.50 448.58, 1573.55 448.79, 1570.81 449.56 C 1568.07 450.33, 1566.52 451.04, 1564.83 452.35 C 1563.14 453.66, 1562.46 454.54, 1562.36 456.10 C 1562.27 457.66, 1562.83 458.58, 1564.36 460.15 C 1565.89 461.71, 1567.27 462.47, 1570.03 463.93 C 1572.79 465.39, 1574.84 466.03, 1578.16 467.46 C 1581.48 468.90, 1583.62 469.76, 1586.61 471.11 C 1589.59 472.46, 1591.23 473.20, 1593.10 474.22 C 1594.97 475.24, 1595.70 475.57, 1595.96 476.22 C 1596.23 476.86, 1595.74 477.04, 1594.41 477.43 C 1593.07 477.83, 1591.77 477.87, 1589.30 478.20 C 1586.82 478.54, 1585.01 478.89, 1582.03 479.11 C 1579.05 479.32, 1577.21 479.19, 1574.42 479.28 C 1571.63 479.37, 1570.04 479.44, 1568.10 479.55 C 1566.15 479.67, 1565.41 479.60, 1564.70 479.86 C 1563.98 480.12, 1563.90 480.38, 1564.53 480.87 C 1565.16 481.36, 1565.87 481.81, 1567.84 482.29 C 1569.81 482.78, 1571.47 483.12, 1574.36 483.29 C 1577.26 483.46, 1579.16 483.37, 1582.31 483.16 C 1585.46 482.94, 1587.42 482.93, 1590.10 482.23 C 1592.79 481.54, 1594.22 480.95, 1595.72 479.68 C 1597.23 478.41, 1597.82 477.49, 1597.64 475.89 C 1597.47 474.29, 1596.77 473.24, 1594.85 471.66 C 1592.93 470.09, 1591.11 469.49, 1588.06 468.01 C 1585.01 466.53, 1582.84 465.80, 1579.59 464.28 C 1576.34 462.76, 1574.49 461.73, 1571.82 460.42 C 1569.15 459.11, 1567.79 458.59, 1566.25 457.74 C 1564.70 456.90, 1564.10 456.75, 1564.11 456.19 C 1564.12 455.63, 1564.80 455.48, 1566.32 454.94 C 1567.84 454.39, 1569.26 453.91, 1571.72 453.48 C 1574.17 453.05, 1575.89 452.81, 1578.59 452.78 C 1581.30 452.75, 1582.94 453.06, 1585.25 453.34 C 1587.56 453.63, 1588.57 453.87, 1590.14 454.19 C 1591.71 454.50, 1592.38 455.01, 1593.12 454.90 C 1593.86 454.80, 1594.20 454.38, 1593.83 453.65" style="stroke: black; fill: black;"/></svg>